# xmcd
#
# Track frame offsets:
#	150
#	13833
#	31001
#	49999
#	63409
#	78126
#	93650
#	108853
#	123176
#	137278
#	149651
#	163985
#	179081
#	194052
#
# Disc length: 2787 seconds
#
# Revision: 1
# Processed by: cddbd v1.5.2PL0 Copyright (c) Steve Scherf et al.
# Submitted via: audiograbber 1.83.01
#
DISCID=c60ae10e
DTITLE=Ernie Oldfield - Cherish
DYEAR=2017
DGENRE=Country
TTITLE0=Jacky Jocker
TTITLE1=His Belly´s Full Of Bear
TTITLE2=Hold Me Tight
TTITLE3=Say Hello
TTITLE4=Loving You, Loving Me
TTITLE5=Bread And Beans
TTITLE6=Prisoner In Blues
TTITLE7=Many Kind of Kisses
TTITLE8=I Got What I Am
TTITLE9=Back To The Roots
TTITLE10=Beautiful Lady
TTITLE11=Key Of Your Heart
TTITLE12=Boy Of Texas
TTITLE13=I Have To Go To Be Black Again
EXTD=
EXTT0=
EXTT1=
EXTT2=
EXTT3=
EXTT4=
EXTT5=
EXTT6=
EXTT7=
EXTT8=
EXTT9=
EXTT10=
EXTT11=
EXTT12=
EXTT13=
PLAYORDER=
